<svg width="24" height="24" viewBox="0 0 24 24" fill="none" xmlns="http://www.w3.org/2000/svg">
<path d="M15.2073 0.787726L3.61621 3.89355L5.16913 9.68911L7.10098 9.17147L7.61861 11.1033L9.55047 10.5857L10.5857 14.4494L8.65389 14.967L9.17153 16.8989L7.23968 17.4165L8.79259 23.2121L20.3837 20.1062L18.8308 14.3107L16.8989 14.8283L16.3813 12.8965L14.4494 13.4141L13.4142 9.55041L15.346 9.03277L14.8284 7.10092L16.7602 6.58328L15.2073 0.787726ZM14.8284 7.10092L12.8965 7.61856L13.4142 9.55041L9.55047 10.5857L9.03283 8.65383L7.10098 9.17147L6.0657 5.30777L13.7931 3.23722L14.8284 7.10092ZM14.4494 13.4141L14.9671 15.346L16.8989 14.8283L17.9342 18.692L10.2068 20.7626L9.17153 16.8989L11.1034 16.3812L10.5857 14.4494L14.4494 13.4141Z" fill="#64DD17"/>
</svg>
