<svg width="57" height="58" viewBox="0 0 57 58" fill="none" xmlns="http://www.w3.org/2000/svg">
<g clip-path="url(#clip0_84_200)">
<path d="M43.6406 0.5H13.3594C5.9812 0.5 0 6.4812 0 13.8594V44.1406C0 51.5188 5.9812 57.5 13.3594 57.5H43.6406C51.0188 57.5 57 51.5188 57 44.1406V13.8594C57 6.4812 51.0188 0.5 43.6406 0.5Z" fill="#242938"/>
<mask id="mask0_84_200" style="mask-type:luminance" maskUnits="userSpaceOnUse" x="13" y="6" width="31" height="46">
<path d="M13.582 6.73438H43.2755V51.2656H13.582V6.73438Z" fill="white"/>
</mask>
<g mask="url(#mask0_84_200)">
<path d="M21.0069 51.2657C25.1038 51.2657 28.4287 47.9408 28.4287 43.8439V36.4219H21.0069C16.91 36.4219 13.5849 39.747 13.5849 43.8439C13.5849 47.9408 16.91 51.2657 21.0069 51.2657Z" fill="#0ACF83"/>
<path d="M13.5849 28.9999C13.5849 24.9031 16.91 21.5781 21.0069 21.5781H28.4287V36.4217H21.0069C16.91 36.4217 13.5849 33.0968 13.5849 28.9999Z" fill="#A259FF"/>
<path d="M13.5849 14.1562C13.5849 10.0593 16.91 6.73438 21.0069 6.73438H28.4287V21.5782H21.0069C16.91 21.5782 13.5849 18.2531 13.5849 14.1562Z" fill="#F24E1E"/>
<path d="M28.4287 6.73438H35.8505C39.9474 6.73438 43.2725 10.0593 43.2725 14.1562C43.2725 18.2531 39.9474 21.5782 35.8505 21.5782H28.4287V6.73438Z" fill="#FF7262"/>
<path d="M43.2725 28.9999C43.2725 33.0968 39.9474 36.4217 35.8505 36.4217C31.7536 36.4217 28.4287 33.0968 28.4287 28.9999C28.4287 24.9031 31.7536 21.5781 35.8505 21.5781C39.9474 21.5781 43.2725 24.9031 43.2725 28.9999Z" fill="#1ABCFE"/>
</g>
</g>
<defs>
<clipPath id="clip0_84_200">
<rect width="57" height="57" fill="white" transform="translate(0 0.5)"/>
</clipPath>
</defs>
</svg>
