<svg width="25" height="25" viewBox="0 0 25 25" fill="none" xmlns="http://www.w3.org/2000/svg">
<mask id="mask0_84_1200" style="mask-type:luminance" maskUnits="userSpaceOnUse" x="0" y="0" width="25" height="25">
<path d="M25 0.215332H0V24.7843H25V0.215332Z" fill="white"/>
</mask>
<g mask="url(#mask0_84_1200)">
<mask id="mask1_84_1200" style="mask-type:luminance" maskUnits="userSpaceOnUse" x="5" y="2" width="14" height="21">
<path d="M5.95703 2.90234H18.9805V22.0968H5.95703V2.90234Z" fill="white"/>
</mask>
<g mask="url(#mask1_84_1200)">
<path d="M9.21358 22.0969C11.0105 22.0969 12.4688 20.6638 12.4688 18.8979V15.6987H9.21358C7.41669 15.6987 5.95831 17.132 5.95831 18.8979C5.95831 20.6638 7.41669 22.0969 9.21358 22.0969Z" fill="#0ACF83"/>
<path d="M5.95831 12.4993C5.95831 10.7335 7.41669 9.30029 9.21358 9.30029H12.4688V15.6984H9.21358C7.41669 15.6984 5.95831 14.2653 5.95831 12.4993Z" fill="#A259FF"/>
<path d="M5.9584 6.1014C5.9584 4.3355 7.41678 2.90234 9.21367 2.90234H12.4688V9.30054H9.21367C7.41678 9.30054 5.9584 7.86731 5.9584 6.1014Z" fill="#F24E1E"/>
<path d="M12.4688 2.90234H15.7239C17.5208 2.90234 18.9792 4.3355 18.9792 6.1014C18.9792 7.86731 17.5208 9.30054 15.7239 9.30054H12.4688V2.90234Z" fill="#FF7262"/>
<path d="M18.9792 12.4993C18.9792 14.2653 17.5208 15.6984 15.7239 15.6984C13.927 15.6984 12.4688 14.2653 12.4688 12.4993C12.4688 10.7335 13.927 9.30029 15.7239 9.30029C17.5208 9.30029 18.9792 10.7335 18.9792 12.4993Z" fill="#1ABCFE"/>
</g>
</g>
</svg>
